<svg xmlns="http://www.w3.org/2000/svg" width="800" height="550" viewBox="0 0 800 550">

<defs>
  <linearGradient id="gradCenter" x1="368" y1="184" x2="368" y2="303" gradientUnits="userSpaceOnUse">
    <stop offset="0%" stop-color="#f9fbfc"/>
    <stop offset="42%" stop-color="#54a6f2"/>
    <stop offset="100%" stop-color="#5e80bf"/>
  </linearGradient>
</defs>

<g id="helmet">
<path d="M 342.0,57.0 337.0,119.0 397.0,119.0 392.0,58.0 367.0,54.0 Z" fill="#fdd627" stroke="#0d1b42" stroke-width="6" stroke-linejoin="round"/>
<path d="M 330.0,61.0 293.0,82.0 270.0,145.0 313.0,141.0 324.0,128.0 Z" fill="#fdd627" stroke="#0d1b42" stroke-width="6" stroke-linejoin="round"/>
<path d="M 404.0,61.0 409.0,126.0 420.0,140.0 465.0,145.0 442.0,83.0 Z" fill="#fdd627" stroke="#0d1b42" stroke-width="6" stroke-linejoin="round"/>
<path d="M 248.0,158.0 249.0,172.0 487.0,171.0 485.0,156.0 417.0,151.0 400.0,131.0 335.0,131.0 317.0,151.0 Z" fill="#fdd627" stroke="#0d1b42" stroke-width="6" stroke-linejoin="round"/>
<path d="M343,56 Q368,50 393,56" fill="none" stroke="#f9fbfc" stroke-width="4" stroke-linecap="round"/>
</g>

<g id="circuits" fill="none" stroke-linecap="round" stroke-linejoin="round">
  <path d="M280 184 L280 200" stroke="#f9fbfc" stroke-width="6"/>
  <circle cx="280" cy="208" r="11" stroke="#f9fbfc" stroke-width="6"/>
  <path d="M326 184 L326 210 L339 223 L339 257" stroke="#f9fbfc" stroke-width="6"/>
  <circle cx="339" cy="273" r="11" stroke="#f9fbfc" stroke-width="6"/>
  <path d="M368 184 L368 288" stroke="url(#gradCenter)" stroke-width="8"/>
  <circle cx="368" cy="303" r="12" stroke="#5e80bf" stroke-width="6"/>
  <path d="M406 184 L406 210 L394 223 L394 257" stroke="#54a6f2" stroke-width="6"/>
  <circle cx="394" cy="273" r="11" stroke="#54a6f2" stroke-width="6"/>
  <path d="M456 184 L456 200" stroke="#54a6f2" stroke-width="6"/>
  <circle cx="456" cy="208" r="11" stroke="#54a6f2" stroke-width="6"/>
</g>

</svg>