<svg xmlns="http://www.w3.org/2000/svg" width="1113" height="216" viewBox="0 0 1112.65 215.54">
  <path fill="#F9FBFC" d="M14.37841796875 164.15625H43.970703125L50.85791015625 142.43505859375H90.89453125L97.5546875 164.15625H127.9794921875L89.00244140625 51.3876953125H53.12841796875ZM57.66943359375 121.16796875 59.712890625 114.58349609375C63.6484375 102.02001953125 67.28125 89.68359375 71.14111328125 75.83349609375C74.92529296875 89.68359375 78.55810546875 102.02001953125 82.2666015625 114.58349609375L84.31005859375 121.16796875Z M160.86962890625 51.3876953125H133.62353515625V164.15625H160.86962890625Z"/><path fill="#F0A8D8" d="M218.28125 165.97265625C247.34375 165.97265625 264.599609375 152.57666015625 264.599609375 129.87158203125C264.599609375 112.46435546875 253.77685546875 102.5498046875 228.80126953125 97.5546875L218.88671875 95.5869140625C206.0205078125 92.93798828125 200.64697265625 89.5322265625 200.64697265625 83.40185546875C200.64697265625 76.36328125 207.8369140625 71.44384765625 218.1298828125 71.44384765625C228.876953125 71.44384765625 236.06689453125 77.19580078125 236.82373046875 86.5048828125H262.0263671875C261.34521484375 63.42138671875 244.7705078125 49.5712890625 217.75146484375 49.5712890625C191.26220703125 49.5712890625 173.40087890625 63.72412109375 173.40087890625 84.6884765625C173.40087890625 101.11181640625 184.677734375 112.01025390625 206.70166015625 116.55126953125L218.28125 118.8974609375C231.82861328125 121.69775390625 237.65625 125.40625 237.65625 131.83935546875C237.65625 139.25634765625 230.01220703125 144.10009765625 218.50830078125 144.10009765625C205.49072265625 144.10009765625 197.5439453125 137.74267578125 197.16552734375 126.919921875H171.2060546875C171.2060546875 151.81982421875 188.23486328125 165.97265625 218.28125 165.97265625Z"/><path fill="#FBB726" d="M270.84912109375 74.546875H304.07421875V164.15625H331.3203125V74.546875H364.4697265625V51.3876953125H270.84912109375Z M372.9140625 164.15625H400.16015625V126.69287109375H417.71875L436.10986328125 164.15625H464.86962890625L443.22412109375 121.16796875C455.03076171875 115.03759765625 461.91796875 103.98779296875 461.91796875 89.5322265625C461.91796875 66.14599609375 445.49462890625 51.3876953125 419.3837890625 51.3876953125H372.9140625ZM400.16015625 105.2744140625V73.71435546875H417.49169921875C428.4658203125 73.71435546875 435.27734375 79.92041015625 435.27734375 89.5322265625C435.27734375 99.068359375 428.4658203125 105.2744140625 417.5673828125 105.2744140625Z M523.4921875 165.97265625C553.9169921875 165.97265625 577.37890625 144.55419921875 577.37890625 107.84765625C577.37890625 71.0654296875 553.9169921875 49.5712890625 523.4921875 49.5712890625C492.916015625 49.5712890625 469.52978515625 71.0654296875 469.52978515625 107.84765625C469.52978515625 144.40283203125 492.916015625 165.97265625 523.4921875 165.97265625ZM523.4921875 142.2080078125C507.2958984375 142.2080078125 496.92724609375 129.64453125 496.92724609375 107.84765625C496.92724609375 85.97509765625 507.2958984375 73.3359375 523.4921875 73.3359375C539.61279296875 73.3359375 549.9814453125 85.97509765625 549.9814453125 107.84765625C549.9814453125 129.64453125 539.61279296875 142.2080078125 523.4921875 142.2080078125Z M621.5458984375 164.15625H647.95947265625V123.81689453125L688.904296875 51.3876953125H657.94970703125L640.99658203125 84.15869140625C638.87744140625 88.24560546875 636.833984375 92.33251953125 634.94189453125 96.41943359375C632.8984375 92.33251953125 630.779296875 88.24560546875 628.58447265625 84.15869140625L610.798828125 51.3876953125H579.69287109375L621.5458984375 123.81689453125Z M694.54833984375 164.15625H721.79443359375V135.47216796875L736.0986328125 118.36767578125L765.08544921875 164.15625H796.26708984375L753.88427734375 99.9765625L794.677734375 51.3876953125H762.66357421875L737.4609375 82.2666015625C732.23876953125 88.775390625 727.0166015625 95.20849609375 721.79443359375 101.71728515625V51.3876953125H694.54833984375Z M795.099609375 164.15625H824.69189453125L831.5791015625 142.43505859375H871.61572265625L878.27587890625 164.15625H908.70068359375L869.7236328125 51.3876953125H833.849609375ZM838.390625 121.16796875 840.43408203125 114.58349609375C844.36962890625 102.02001953125 848.00244140625 89.68359375 851.8623046875 75.83349609375C855.646484375 89.68359375 859.279296875 102.02001953125 862.98779296875 114.58349609375L865.03125 121.16796875Z"/><path fill="#54A6F2" d="M926.83251953125 165.59423828125C934.70361328125 165.59423828125 941.06103515625 159.23681640625 941.06103515625 151.2900390625C941.06103515625 143.4189453125 934.70361328125 137.0615234375 926.83251953125 137.0615234375C918.96142578125 137.0615234375 912.60400390625 143.4189453125 912.60400390625 151.2900390625C912.60400390625 159.23681640625 918.96142578125 165.59423828125 926.83251953125 165.59423828125Z M944.888671875 164.15625H974.48095703125L981.3681640625 142.43505859375H1021.40478515625L1028.06494140625 164.15625H1058.48974609375L1019.5126953125 51.3876953125H983.638671875ZM988.1796875 121.16796875 990.22314453125 114.58349609375C994.15869140625 102.02001953125 997.79150390625 89.68359375 1001.6513671875 75.83349609375C1005.435546875 89.68359375 1009.068359375 102.02001953125 1012.77685546875 114.58349609375L1014.8203125 121.16796875Z M1091.3798828125 51.3876953125H1064.1337890625V164.15625H1091.3798828125Z"/>
</svg>